<svg xmlns="http://www.w3.org/2000/svg" viewBox="0 0 500 500"><defs><style>.a{fill:#83499c;}.b{fill:#7252a2;}</style></defs><title>Artboard 1 copy 2</title><path class="a" d="M249.81,49.21c-66.45,0-132.89-.24-199.34.14C28.85,49.47,12,59,3.82,79.88-4,99.9-1.44,119,13.43,135.25c12.21,13.34,28.72,15.66,45.63,15.68q146.46.13,292.92,0c31.2,0,62.4.4,93.59-.12,31.82-.54,51.86-17.69,54.62-45.55,3.13-31.49-18.5-55.8-51.05-56C382.7,48.94,316.25,49.21,249.81,49.21Z"/><path class="b" d="M199.68,350c-48.23,0-96.47-.14-144.7.05-28.64.11-48.06,13.71-53.32,36.63-8.23,35.91,13.69,63.95,50.91,64.05,93.22.25,186.45.09,279.67.09,6.48,0,13,.16,19.45-.16,39.75-1.95,61.67-41.55,42.28-76.38-7.9-14.18-20.52-21.63-36.27-23.36-9.63-1.06-19.41-.87-29.13-.89Q264.13,349.92,199.68,350Z"/><path class="b" d="M124.09,199.9c-24.69,0-49.38-.42-74.06.1C20.36,200.62.25,220.84-.22,249.57c-.47,28.9,18.64,50.15,48.78,50.74q77.07,1.5,154.17,0c30.14-.56,48.47-21.38,48.06-51.09-.38-28.36-19.87-48.46-49-49.21C175.9,199.38,150,199.91,124.09,199.9Z"/></svg>